<?xml version="1.0" encoding="UTF-8"?>
<!DOCTYPE svg PUBLIC "-//W3C//DTD SVG 1.1//EN" "http://www.w3.org/Graphics/SVG/1.1/DTD/svg11.dtd">
<svg version="1.2" width="59.45mm" height="16.27mm" viewBox="8003 16748 5945 1627" preserveAspectRatio="xMidYMid" fill-rule="evenodd" stroke-width="28.222" stroke-linejoin="round" xmlns="http://www.w3.org/2000/svg" xmlns:ooo="http://xml.openoffice.org/svg/export" xmlns:xlink="http://www.w3.org/1999/xlink" xmlns:presentation="http://sun.com/xmlns/staroffice/presentation" xmlns:smil="http://www.w3.org/2001/SMIL20/" xmlns:anim="urn:oasis:names:tc:opendocument:xmlns:animation:1.0" xmlns:svg="urn:oasis:names:tc:opendocument:xmlns:svg-compatible:1.0" xml:space="preserve">
 <defs class="EmbeddedBulletChars">
  <g id="bullet-char-template-57356" transform="scale(0.00048828125,-0.00048828125)">
   <path d="M 580,1141 L 1163,571 580,0 -4,571 580,1141 Z"/>
  </g>
  <g id="bullet-char-template-57354" transform="scale(0.00048828125,-0.00048828125)">
   <path d="M 8,1128 L 1137,1128 1137,0 8,0 8,1128 Z"/>
  </g>
  <g id="bullet-char-template-10146" transform="scale(0.00048828125,-0.00048828125)">
   <path d="M 174,0 L 602,739 174,1481 1456,739 174,0 Z M 1358,739 L 309,1346 659,739 1358,739 Z"/>
  </g>
  <g id="bullet-char-template-10132" transform="scale(0.00048828125,-0.00048828125)">
   <path d="M 2015,739 L 1276,0 717,0 1260,543 174,543 174,936 1260,936 717,1481 1274,1481 2015,739 Z"/>
  </g>
  <g id="bullet-char-template-10007" transform="scale(0.00048828125,-0.00048828125)">
   <path d="M 0,-2 C -7,14 -16,27 -25,37 L 356,567 C 262,823 215,952 215,954 215,979 228,992 255,992 264,992 276,990 289,987 310,991 331,999 354,1012 L 381,999 492,748 772,1049 836,1024 860,1049 C 881,1039 901,1025 922,1006 886,937 835,863 770,784 769,783 710,716 594,584 L 774,223 C 774,196 753,168 711,139 L 727,119 C 717,90 699,76 672,76 641,76 570,178 457,381 L 164,-76 C 142,-110 111,-127 72,-127 30,-127 9,-110 8,-76 1,-67 -2,-52 -2,-32 -2,-23 -1,-13 0,-2 Z"/>
  </g>
  <g id="bullet-char-template-10004" transform="scale(0.00048828125,-0.00048828125)">
   <path d="M 285,-33 C 182,-33 111,30 74,156 52,228 41,333 41,471 41,549 55,616 82,672 116,743 169,778 240,778 293,778 328,747 346,684 L 369,508 C 377,444 397,411 428,410 L 1163,1116 C 1174,1127 1196,1133 1229,1133 1271,1133 1292,1118 1292,1087 L 1292,965 C 1292,929 1282,901 1262,881 L 442,47 C 390,-6 338,-33 285,-33 Z"/>
  </g>
  <g id="bullet-char-template-9679" transform="scale(0.00048828125,-0.00048828125)">
   <path d="M 813,0 C 632,0 489,54 383,161 276,268 223,411 223,592 223,773 276,916 383,1023 489,1130 632,1184 813,1184 992,1184 1136,1130 1245,1023 1353,916 1407,772 1407,592 1407,412 1353,268 1245,161 1136,54 992,0 813,0 Z"/>
  </g>
  <g id="bullet-char-template-8226" transform="scale(0.00048828125,-0.00048828125)">
   <path d="M 346,457 C 273,457 209,483 155,535 101,586 74,649 74,723 74,796 101,859 155,911 209,963 273,989 346,989 419,989 480,963 531,910 582,859 608,796 608,723 608,648 583,586 532,535 482,483 420,457 346,457 Z"/>
  </g>
  <g id="bullet-char-template-8211" transform="scale(0.00048828125,-0.00048828125)">
   <path d="M -4,459 L 1135,459 1135,606 -4,606 -4,459 Z"/>
  </g>
  <g id="bullet-char-template-61548" transform="scale(0.00048828125,-0.00048828125)">
   <path d="M 173,740 C 173,903 231,1043 346,1159 462,1274 601,1332 765,1332 928,1332 1067,1274 1183,1159 1299,1043 1357,903 1357,740 1357,577 1299,437 1183,322 1067,206 928,148 765,148 601,148 462,206 346,322 231,437 173,577 173,740 Z"/>
  </g>
 </defs>
 <g class="Page">
  <g class="Group">
   <g class="Group">
    <g class="com.sun.star.drawing.ClosedBezierShape">
     <g id="id3">
      <rect class="BoundingBox" stroke="none" fill="none" x="9727" y="17696" width="320" height="466"/>
      <path fill="rgb(0,0,0)" stroke="none" d="M 9770,17985 C 9770,17983 9768,17982 9763,17981 9759,17981 9753,17979 9748,17976 9743,17973 9738,17969 9733,17962 9729,17957 9727,17949 9727,17939 9727,17936 9728,17933 9729,17931 9730,17928 9732,17926 9736,17923 9740,17921 9745,17918 9751,17916 9757,17915 9765,17914 9775,17914 9776,17906 9777,17894 9781,17880 9784,17866 9787,17852 9792,17835 9797,17819 9803,17804 9810,17787 9816,17770 9825,17756 9835,17742 9845,17728 9856,17718 9869,17710 9882,17701 9895,17696 9911,17696 9921,17696 9932,17697 9941,17700 9952,17703 9960,17707 9968,17713 9975,17718 9981,17725 9986,17734 9991,17742 9993,17752 9993,17763 9993,17778 9990,17794 9985,17809 9978,17824 9971,17839 9960,17854 9951,17868 9940,17882 9928,17894 9916,17908 9904,17919 9892,17930 9879,17940 9868,17949 9856,17956 9845,17963 9835,17969 9827,17973 9827,17984 9827,17998 9828,18013 9830,18028 9833,18043 9837,18056 9842,18070 9848,18081 9855,18091 9864,18100 9873,18105 9886,18105 9892,18105 9900,18102 9910,18097 9918,18092 9929,18083 9938,18073 9949,18063 9959,18050 9970,18034 9980,18019 9990,18001 9999,17981 10003,17975 10008,17971 10014,17971 10020,17971 10026,17972 10031,17976 10036,17979 10040,17984 10043,17990 10047,17996 10047,18002 10043,18007 10033,18029 10021,18049 10010,18068 9997,18087 9983,18102 9969,18116 9954,18130 9939,18141 9925,18149 9909,18157 9893,18161 9877,18161 9857,18160 9841,18154 9827,18144 9814,18133 9804,18119 9796,18102 9788,18086 9783,18067 9779,18047 9774,18026 9772,18005 9770,17985 Z M 9935,17754 C 9926,17748 9917,17747 9908,17750 9899,17753 9891,17760 9884,17769 9875,17778 9869,17790 9862,17804 9855,17817 9850,17830 9846,17843 9841,17857 9837,17868 9834,17880 9831,17890 9830,17899 9829,17903 9835,17903 9843,17900 9851,17893 9860,17887 9869,17880 9879,17870 9889,17860 9898,17850 9908,17837 9916,17825 9925,17814 9930,17804 9936,17792 9940,17783 9941,17773 9944,17765 9941,17759 9935,17754 Z"/>
     </g>
    </g>
    <g class="com.sun.star.drawing.ClosedBezierShape">
     <g id="id4">
      <rect class="BoundingBox" stroke="none" fill="none" x="10084" y="17486" width="365" height="674"/>
      <path fill="rgb(0,0,0)" stroke="none" d="M 10088,18089 C 10087,18055 10086,18017 10086,17972 10086,17927 10086,17879 10084,17829 10084,17777 10085,17724 10085,17669 10086,17614 10087,17559 10089,17504 10090,17499 10093,17494 10098,17491 10104,17488 10110,17487 10116,17487 10123,17487 10129,17488 10134,17490 10139,17493 10143,17497 10143,17503 10141,17543 10141,17589 10140,17640 10140,17691 10140,17742 10140,17794 10140,17846 10140,17898 10141,17951 10142,18002 10144,18050 10147,18094 10176,18090 10203,18086 10228,18080 10254,18074 10279,18067 10301,18059 10323,18051 10345,18043 10364,18035 10383,18025 10402,18018 10418,18010 10427,18006 10433,18006 10437,18010 10443,18015 10446,18020 10446,18027 10448,18033 10447,18042 10446,18049 10443,18056 10439,18063 10433,18066 10423,18073 10408,18079 10391,18089 10374,18096 10353,18104 10330,18112 10307,18120 10281,18129 10251,18136 10223,18144 10191,18151 10157,18158 10152,18159 10145,18158 10137,18158 10129,18158 10122,18154 10115,18150 10107,18146 10101,18140 10096,18129 10092,18120 10088,18106 10088,18089 Z"/>
     </g>
    </g>
    <g class="com.sun.star.drawing.ClosedBezierShape">
     <g id="id5">
      <rect class="BoundingBox" stroke="none" fill="none" x="10464" y="17713" width="323" height="453"/>
      <path fill="rgb(0,0,0)" stroke="none" d="M 10673,17882 C 10670,17897 10667,17915 10664,17936 10661,17956 10656,17977 10652,17999 10647,18022 10641,18043 10635,18065 10627,18086 10619,18105 10609,18121 10599,18137 10588,18149 10575,18157 10562,18165 10547,18167 10529,18163 10514,18159 10502,18149 10492,18133 10484,18116 10477,18097 10473,18072 10467,18049 10465,18022 10464,17993 10464,17965 10464,17936 10465,17907 10466,17878 10467,17850 10468,17822 10471,17795 10472,17772 10473,17753 10473,17742 10476,17735 10484,17730 10491,17726 10499,17724 10506,17724 10515,17724 10523,17727 10529,17731 10535,17736 10538,17742 10536,17749 10535,17758 10532,17773 10530,17793 10529,17813 10527,17835 10526,17859 10525,17884 10524,17910 10524,17937 10523,17963 10524,17988 10525,18010 10526,18033 10527,18051 10530,18067 10532,18080 10537,18090 10541,18091 10550,18093 10559,18090 10565,18079 10573,18070 10580,18056 10587,18038 10593,18019 10600,17998 10605,17974 10611,17949 10615,17924 10619,17897 10624,17871 10627,17844 10630,17816 10634,17789 10636,17765 10637,17742 10638,17733 10642,17726 10650,17720 10657,17715 10666,17714 10676,17714 10685,17715 10694,17719 10702,17726 10710,17733 10715,17743 10715,17757 10716,17766 10717,17779 10718,17798 10719,17815 10722,17836 10724,17858 10726,17881 10728,17904 10731,17930 10735,17955 10739,17980 10743,18003 10748,18027 10753,18049 10760,18069 10765,18089 10772,18105 10780,18116 10785,18123 10787,18132 10784,18140 10781,18147 10776,18154 10770,18158 10764,18163 10756,18165 10749,18165 10741,18165 10735,18160 10729,18151 10718,18132 10709,18108 10702,18084 10695,18061 10691,18036 10687,18012 10684,17987 10681,17963 10679,17941 10677,17918 10675,17898 10673,17882 Z"/>
     </g>
    </g>
    <g class="com.sun.star.drawing.ClosedBezierShape">
     <g id="id6">
      <rect class="BoundingBox" stroke="none" fill="none" x="10801" y="17693" width="299" height="478"/>
      <path fill="rgb(0,0,0)" stroke="none" d="M 10924,17695 C 10935,17692 10943,17693 10949,17697 10956,17701 10960,17706 10962,17714 10963,17721 10963,17729 10960,17737 10956,17744 10950,17749 10942,17753 10930,17757 10920,17766 10910,17778 10901,17791 10893,17807 10885,17824 10879,17842 10873,17861 10868,17883 10863,17904 10861,17925 10859,17946 10858,17967 10858,17988 10859,18009 10860,18029 10863,18047 10867,18062 10872,18078 10878,18092 10886,18101 10894,18111 10904,18117 10916,18117 10925,18118 10936,18114 10945,18107 10956,18100 10965,18092 10975,18080 10984,18069 10992,18056 11001,18043 11009,18029 11017,18015 11023,18003 11029,17990 11034,17978 11039,17967 11043,17957 11045,17950 11046,17944 11048,17936 11053,17932 11060,17930 11066,17928 11072,17929 11079,17932 11085,17935 11090,17939 11094,17946 11099,17953 11099,17960 11096,17968 11086,17999 11074,18026 11062,18050 11049,18074 11034,18095 11020,18113 11004,18130 10987,18145 10968,18154 10949,18165 10928,18170 10904,18170 10883,18170 10864,18165 10850,18152 10837,18140 10825,18123 10817,18102 10810,18081 10804,18057 10802,18030 10800,18003 10801,17976 10803,17948 10806,17918 10812,17890 10819,17862 10825,17834 10835,17808 10845,17785 10856,17762 10868,17742 10881,17726 10895,17709 10909,17699 10924,17695 Z"/>
     </g>
    </g>
    <g class="com.sun.star.drawing.ClosedBezierShape">
     <g id="id7">
      <rect class="BoundingBox" stroke="none" fill="none" x="11127" y="17620" width="75" height="552"/>
      <path fill="rgb(0,0,0)" stroke="none" d="M 11199,18143 C 11199,18149 11196,18155 11189,18160 11183,18165 11176,18168 11168,18170 11161,18171 11154,18170 11147,18166 11141,18162 11138,18154 11139,18141 L 11137,17729 C 11137,17718 11140,17712 11145,17708 11150,17704 11157,17701 11164,17701 11170,17702 11177,17705 11182,17709 11187,17713 11190,17719 11190,17725 L 11199,18143 Z M 11127,17647 C 11126,17642 11128,17638 11131,17634 11135,17629 11139,17626 11144,17624 11149,17621 11156,17620 11162,17620 11169,17620 11176,17621 11181,17623 11186,17625 11191,17628 11195,17634 11199,17639 11201,17645 11200,17653 11200,17661 11196,17667 11188,17671 11181,17675 11172,17677 11164,17677 11156,17677 11147,17675 11140,17670 11131,17666 11128,17658 11127,17647 Z"/>
     </g>
    </g>
    <g class="com.sun.star.drawing.ClosedBezierShape">
     <g id="id8">
      <rect class="BoundingBox" stroke="none" fill="none" x="11235" y="17500" width="324" height="740"/>
      <path fill="rgb(0,0,0)" stroke="none" d="M 11504,18014 C 11498,18031 11489,18046 11479,18062 11467,18077 11455,18092 11440,18105 11425,18117 11410,18128 11392,18137 11375,18146 11357,18153 11339,18156 11319,18160 11302,18158 11289,18151 11275,18142 11264,18132 11256,18117 11248,18103 11241,18085 11238,18065 11235,18045 11234,18024 11236,18003 11237,17981 11240,17962 11246,17941 11252,17921 11259,17903 11269,17887 11285,17858 11304,17834 11322,17817 11340,17800 11358,17787 11376,17780 11395,17772 11413,17768 11432,17768 11451,17768 11469,17770 11489,17776 11489,17742 11489,17704 11488,17662 11486,17619 11485,17572 11484,17520 11484,17515 11487,17510 11493,17507 11498,17503 11504,17501 11511,17500 11518,17500 11524,17500 11529,17502 11536,17504 11538,17507 11538,17514 L 11557,18211 C 11558,18222 11555,18229 11548,18233 11542,18237 11536,18239 11528,18239 11521,18239 11515,18237 11508,18233 11503,18229 11500,18223 11500,18215 L 11504,18014 Z M 11490,17840 C 11468,17831 11448,17827 11431,17829 11413,17831 11396,17836 11381,17846 11366,17855 11353,17868 11342,17883 11331,17898 11322,17915 11315,17932 11308,17950 11302,17968 11299,17987 11295,18004 11294,18022 11294,18037 11295,18052 11297,18066 11301,18076 11307,18087 11313,18093 11321,18096 11334,18100 11348,18099 11361,18093 11375,18087 11389,18077 11402,18065 11415,18052 11427,18037 11438,18019 11449,18001 11459,17981 11467,17962 11476,17942 11482,17921 11486,17900 11490,17879 11492,17859 11490,17840 Z"/>
     </g>
    </g>
    <g class="com.sun.star.drawing.ClosedBezierShape">
     <g id="id9">
      <rect class="BoundingBox" stroke="none" fill="none" x="13593" y="17505" width="355" height="663"/>
      <path fill="rgb(0,0,0)" stroke="none" d="M 13862,17550 C 13868,17558 13872,17567 13869,17574 13868,17581 13865,17587 13860,17592 13855,17596 13848,17598 13842,17599 13836,17600 13831,17598 13827,17595 13819,17582 13808,17574 13798,17570 13787,17565 13777,17563 13767,17565 13757,17566 13748,17570 13739,17577 13730,17584 13722,17593 13716,17603 13704,17623 13695,17644 13687,17669 13678,17694 13671,17719 13666,17746 13660,17774 13656,17801 13653,17830 13650,17858 13649,17885 13649,17911 13649,17939 13651,17964 13653,17988 13656,18011 13660,18032 13667,18049 13678,18083 13696,18103 13719,18109 13743,18115 13770,18107 13798,18084 13810,18074 13819,18064 13828,18052 13839,18040 13847,18027 13855,18015 13863,18001 13869,17989 13876,17976 13882,17964 13888,17952 13893,17943 13897,17934 13902,17930 13908,17928 13916,17927 13923,17928 13929,17931 13936,17933 13941,17939 13944,17945 13948,17951 13947,17958 13944,17967 13926,18002 13908,18035 13890,18064 13873,18092 13852,18115 13827,18133 13808,18146 13789,18157 13769,18162 13748,18167 13729,18168 13709,18164 13690,18161 13673,18152 13656,18137 13640,18123 13628,18103 13619,18076 13611,18052 13604,18025 13599,17994 13595,17963 13593,17931 13593,17897 13593,17863 13595,17830 13599,17796 13604,17761 13610,17728 13617,17696 13626,17665 13635,17636 13648,17610 13659,17584 13673,17562 13690,17544 13699,17533 13711,17524 13725,17518 13740,17510 13755,17506 13771,17505 13787,17504 13803,17507 13819,17515 13835,17521 13849,17533 13862,17550 Z"/>
     </g>
    </g>
    <g class="com.sun.star.drawing.ClosedBezierShape">
     <g id="id10">
      <rect class="BoundingBox" stroke="none" fill="none" x="11579" y="17711" width="381" height="460"/>
      <path fill="rgb(0,0,0)" stroke="none" d="M 11835,17969 C 11834,17977 11832,17988 11830,18001 11828,18013 11825,18026 11822,18041 11818,18056 11812,18071 11805,18086 11797,18100 11788,18114 11778,18126 11767,18138 11755,18148 11739,18156 11725,18164 11708,18167 11689,18167 11674,18168 11662,18164 11653,18158 11644,18150 11637,18142 11630,18131 11625,18120 11621,18108 11619,18096 11616,18084 11615,18072 11615,18062 11615,18053 11616,18043 11618,18029 11619,18016 11621,18002 11625,17987 11629,17972 11634,17957 11641,17942 11648,17927 11657,17913 11668,17901 11678,17888 11691,17877 11705,17869 11720,17860 11737,17855 11756,17853 11771,17852 11785,17854 11798,17858 11794,17844 11789,17830 11784,17814 11784,17813 11784,17813 11784,17812 11779,17799 11771,17788 11763,17779 11754,17770 11745,17766 11732,17767 11726,17767 11718,17771 11709,17777 11700,17783 11691,17792 11682,17803 11672,17814 11663,17827 11653,17844 11644,17860 11636,17878 11628,17899 11624,17905 11620,17910 11614,17910 11607,17911 11602,17910 11597,17906 11591,17904 11587,17899 11583,17893 11579,17888 11579,17881 11582,17876 11591,17853 11601,17833 11611,17813 11622,17793 11635,17777 11648,17762 11662,17747 11676,17735 11690,17726 11705,17717 11721,17712 11736,17711 11756,17711 11774,17715 11788,17724 11801,17735 11813,17747 11821,17764 11831,17780 11838,17798 11843,17818 11844,17822 11845,17825 11846,17829 L 11845,17829 C 11848,17840 11852,17851 11855,17861 11863,17890 11871,17914 11878,17936 11883,17944 11887,17953 11891,17962 11900,17984 11909,18006 11916,18028 11924,18051 11931,18072 11937,18093 11943,18114 11949,18132 11956,18147 11960,18154 11958,18160 11953,18163 11947,18166 11941,18169 11933,18169 11926,18170 11918,18169 11911,18167 11904,18165 11899,18160 11899,18155 11897,18152 11896,18146 11893,18136 11890,18126 11887,18115 11882,18103 11878,18090 11873,18076 11869,18062 11863,18047 11859,18034 11854,18020 11849,18008 11845,17997 11842,17987 11839,17978 11836,17972 11835,17969 Z M 11760,17897 C 11749,17898 11739,17902 11729,17910 11720,17917 11711,17926 11705,17937 11698,17948 11692,17961 11687,17975 11683,17988 11681,18003 11678,18017 11676,18031 11675,18046 11675,18058 11676,18072 11677,18084 11680,18095 11682,18105 11685,18113 11688,18119 11692,18125 11698,18128 11704,18128 11709,18127 11716,18124 11722,18116 11729,18109 11735,18100 11742,18089 11748,18078 11754,18066 11759,18051 11765,18037 11770,18023 11774,18008 11778,17994 11782,17980 11784,17966 11786,17952 11787,17941 11786,17930 11786,17920 11783,17912 11779,17905 11775,17899 11769,17896 11760,17897 Z"/>
     </g>
    </g>
    <g class="com.sun.star.drawing.ClosedBezierShape">
     <g id="id11">
      <rect class="BoundingBox" stroke="none" fill="none" x="12129" y="17693" width="375" height="505"/>
      <path fill="rgb(0,0,0)" stroke="none" d="M 12403,17986 C 12402,17994 12398,18004 12395,18017 12391,18029 12386,18042 12381,18057 12375,18070 12368,18084 12358,18098 12349,18112 12339,18124 12327,18135 12315,18145 12301,18154 12285,18160 12270,18165 12253,18168 12234,18165 12219,18165 12207,18159 12199,18151 12191,18143 12185,18133 12180,18122 12177,18110 12173,18098 12173,18085 12172,18073 12172,18061 12174,18051 12174,18043 12176,18033 12180,18020 12182,18007 12187,17993 12192,17979 12199,17964 12205,17950 12214,17936 12223,17921 12234,17909 12246,17898 12257,17887 12272,17877 12286,17871 12302,17864 12320,17861 12339,17861 12342,17861 12345,17862 12348,17863 12347,17856 12347,17848 12346,17838 12343,17824 12340,17810 12334,17796 12330,17783 12323,17772 12316,17763 12307,17753 12297,17749 12284,17750 12278,17749 12270,17753 12261,17759 12252,17765 12242,17773 12234,17784 12223,17795 12213,17808 12203,17824 12194,17840 12185,17859 12177,17878 12172,17885 12168,17889 12162,17889 12156,17890 12150,17889 12145,17885 12139,17882 12136,17877 12132,17871 12129,17866 12128,17860 12131,17854 12141,17832 12152,17812 12162,17792 12174,17773 12187,17757 12201,17742 12215,17728 12229,17716 12243,17707 12259,17699 12275,17694 12291,17694 12311,17694 12328,17699 12341,17708 12355,17720 12366,17732 12374,17749 12382,17766 12389,17784 12394,17803 12399,17823 12402,17842 12404,17860 L 12403,17887 C 12415,17898 12425,17910 12433,17925 12444,17943 12453,17963 12459,17986 12466,18008 12472,18031 12477,18054 12481,18078 12485,18100 12490,18122 12493,18143 12496,18162 12502,18177 12504,18185 12502,18190 12497,18193 12490,18195 12484,18197 12476,18196 12468,18196 12461,18194 12454,18192 12447,18189 12443,18184 12444,18179 12443,18174 12442,18168 12440,18159 12438,18148 12436,18137 12433,18124 12431,18111 12428,18097 12425,18083 12421,18067 12419,18053 12416,18040 12412,18026 12409,18015 12407,18004 12406,17995 12404,17989 12403,17986 Z M 12338,17905 C 12326,17905 12316,17908 12305,17914 12295,17920 12286,17928 12278,17939 12269,17948 12263,17961 12256,17974 12250,17987 12245,18002 12241,18014 12238,18028 12235,18042 12234,18055 12232,18068 12232,18081 12233,18091 12234,18102 12236,18110 12240,18116 12242,18124 12247,18128 12253,18128 12259,18128 12266,18125 12273,18117 12281,18112 12288,18104 12295,18093 12304,18083 12311,18072 12318,18059 12325,18045 12332,18032 12338,18017 12343,18003 12349,17991 12352,17977 12356,17964 12358,17952 12359,17942 12360,17931 12358,17923 12355,17916 12353,17909 12346,17906 12338,17905 Z"/>
     </g>
    </g>
    <g class="com.sun.star.drawing.ClosedBezierShape">
     <g id="id12">
      <rect class="BoundingBox" stroke="none" fill="none" x="12769" y="17491" width="364" height="678"/>
      <path fill="rgb(0,0,0)" stroke="none" d="M 12907,18107 C 12934,18108 12959,18108 12982,18106 13006,18104 13029,18102 13049,18099 13071,18096 13090,18093 13109,18091 13118,18089 13124,18090 13127,18095 13130,18101 13132,18107 13131,18114 13131,18120 13127,18128 13125,18134 13120,18141 13115,18146 13108,18148 13096,18152 13081,18154 13062,18158 13042,18161 13021,18163 12996,18165 12971,18167 12945,18167 12914,18168 12886,18167 12855,18166 12823,18163 12822,18163 12821,18163 12820,18163 12819,18163 12818,18163 12818,18163 L 12817,18163 C 12813,18163 12809,18162 12805,18160 L 12805,18159 C 12802,18158 12800,18156 12797,18155 12790,18151 12784,18144 12779,18134 12774,18125 12771,18111 12771,18094 12771,18060 12771,18022 12771,17976 12771,17931 12771,17883 12770,17833 12770,17781 12772,17728 12772,17673 12774,17619 12775,17563 12778,17508 12778,17503 12781,17498 12786,17496 12793,17493 12799,17492 12805,17492 12812,17492 12818,17493 12823,17495 12827,17498 12831,17502 12831,17508 12829,17548 12829,17594 12827,17645 12826,17695 12826,17747 12825,17799 12825,17851 12824,17903 12825,17955 12826,17998 12828,18039 12829,18077 L 12828,18100 C 12855,18104 12882,18106 12907,18107 Z"/>
     </g>
    </g>
    <g class="Group">
     <g class="com.sun.star.drawing.ClosedBezierShape">
      <g id="id13">
       <rect class="BoundingBox" stroke="none" fill="none" x="11883" y="17740" width="347" height="93"/>
       <path fill="rgb(0,0,0)" stroke="none" d="M 11886,17832 C 11883,17825 11883,17818 11883,17810 11885,17801 11889,17793 11894,17786 11899,17779 11908,17775 11918,17775 11925,17776 11935,17776 11949,17776 11962,17776 11978,17777 11995,17776 12012,17776 12030,17776 12049,17776 12069,17775 12087,17772 12105,17770 12124,17768 12141,17764 12156,17760 12171,17757 12184,17751 12194,17744 12199,17741 12206,17739 12211,17743 12216,17746 12221,17752 12224,17758 12227,17764 12228,17771 12228,17778 12228,17786 12224,17792 12216,17796 12201,17805 12182,17813 12164,17816 12146,17821 12127,17823 12109,17825 12090,17826 12072,17826 12055,17826 12038,17826 12023,17827 12010,17827 12012,17827 12014,17828 12015,17829 L 11886,17832 Z"/>
      </g>
     </g>
     <g class="com.sun.star.drawing.ClosedBezierShape">
      <g id="id14">
       <rect class="BoundingBox" stroke="none" fill="none" x="12003" y="17537" width="69" height="673"/>
       <path fill="rgb(0,0,0)" stroke="none" d="M 12062,17938 L 12065,17938 12071,18182 C 12071,18188 12068,18193 12062,18198 12056,18203 12048,18206 12041,18208 12033,18210 12026,18208 12020,18204 12014,18201 12010,18193 12011,18179 L 12007,17892 12004,17892 12004,17838 12006,17838 12004,17655 12004,17623 12003,17563 C 12003,17554 12006,17546 12011,17542 12018,17538 12023,17537 12030,17537 12037,17537 12043,17540 12048,17544 12053,17548 12057,17554 12057,17561 L 12062,17792 12062,17938 Z"/>
      </g>
     </g>
    </g>
    <g class="com.sun.star.drawing.ClosedBezierShape">
     <g id="id15">
      <rect class="BoundingBox" stroke="none" fill="none" x="13190" y="17495" width="370" height="676"/>
      <path fill="rgb(0,0,0)" stroke="none" d="M 13334,18109 C 13361,18110 13386,18109 13410,18106 13433,18105 13456,18102 13477,18098 13497,18094 13518,18091 13536,18088 13545,18086 13551,18088 13553,18093 13558,18097 13559,18103 13558,18111 13559,18117 13556,18125 13553,18132 13548,18138 13543,18143 13536,18146 13524,18149 13509,18153 13490,18157 13472,18160 13450,18162 13425,18166 13400,18168 13374,18168 13343,18169 13315,18170 13284,18169 13252,18167 13251,18167 13250,18167 13249,18167 13248,18167 13247,18167 13247,18167 L 13246,18167 C 13243,18167 13238,18166 13234,18164 L 13234,18163 C 13231,18162 13229,18160 13226,18159 13218,18155 13212,18149 13207,18139 13202,18130 13199,18116 13198,18098 13197,18064 13196,18026 13195,17981 13194,17936 13193,17888 13192,17838 13191,17786 13191,17733 13190,17678 13191,17624 13191,17568 13192,17513 13193,17508 13196,17503 13201,17500 13207,17498 13213,17497 13219,17496 13226,17496 13232,17497 13237,17499 13242,17501 13246,17506 13245,17512 13245,17552 13245,17598 13245,17649 13245,17700 13246,17751 13246,17803 13247,17855 13248,17907 13250,17960 13251,18002 13254,18043 13256,18080 L 13255,18103 C 13282,18107 13309,18110 13334,18109 Z"/>
     </g>
    </g>
   </g>
   <g class="Group">
    <g class="com.sun.star.drawing.ClosedBezierShape">
     <g id="id16">
      <rect class="BoundingBox" stroke="none" fill="none" x="8776" y="16748" width="53" height="125"/>
      <path fill="rgb(0,0,0)" stroke="none" d="M 8802,16872 C 8788,16872 8776,16861 8776,16846 L 8776,16774 C 8776,16759 8788,16748 8802,16748 8816,16748 8828,16759 8828,16774 L 8828,16846 C 8828,16861 8817,16872 8802,16872 Z"/>
     </g>
    </g>
    <g class="com.sun.star.drawing.ClosedBezierShape">
     <g id="id17">
      <rect class="BoundingBox" stroke="none" fill="none" x="9072" y="16893" width="104" height="103"/>
      <path fill="rgb(0,0,0)" stroke="none" d="M 9098,16995 C 9091,16995 9084,16992 9080,16988 9069,16977 9069,16961 9080,16951 L 9131,16900 C 9140,16891 9157,16891 9168,16900 9177,16910 9177,16926 9168,16937 L 9117,16988 C 9112,16992 9105,16995 9098,16995 Z"/>
     </g>
    </g>
    <g class="com.sun.star.drawing.ClosedBezierShape">
     <g id="id18">
      <rect class="BoundingBox" stroke="none" fill="none" x="9195" y="17241" width="125" height="53"/>
      <path fill="rgb(0,0,0)" stroke="none" d="M 9293,17293 L 9222,17293 C 9207,17293 9196,17282 9196,17267 9196,17253 9207,17241 9222,17241 L 9293,17241 C 9308,17241 9319,17253 9319,17267 9319,17282 9308,17293 9293,17293 Z"/>
     </g>
    </g>
    <g class="com.sun.star.drawing.ClosedBezierShape">
     <g id="id19">
      <rect class="BoundingBox" stroke="none" fill="none" x="8428" y="16892" width="104" height="106"/>
      <path fill="rgb(0,0,0)" stroke="none" d="M 8505,16996 C 8499,16996 8492,16993 8487,16987 L 8436,16937 C 8427,16927 8427,16910 8436,16899 8446,16889 8462,16890 8473,16899 L 8524,16952 C 8533,16961 8533,16978 8524,16987 8518,16993 8511,16996 8505,16996 Z"/>
     </g>
    </g>
    <g class="com.sun.star.drawing.ClosedBezierShape">
     <g id="id20">
      <rect class="BoundingBox" stroke="none" fill="none" x="8284" y="17241" width="124" height="53"/>
      <path fill="rgb(0,0,0)" stroke="none" d="M 8381,17293 L 8310,17293 C 8296,17293 8284,17282 8284,17267 8284,17253 8296,17241 8310,17241 L 8381,17241 C 8396,17241 8407,17253 8407,17267 8407,17282 8396,17293 8381,17293 Z"/>
     </g>
    </g>
    <g class="com.sun.star.drawing.ClosedBezierShape">
     <g id="id21">
      <rect class="BoundingBox" stroke="none" fill="none" x="9026" y="17689" width="536" height="518"/>
      <path fill="rgb(153,153,153)" stroke="none" d="M 9401,17782 L 9561,18035 C 9547,18069 9531,18097 9513,18109 9378,18211 9311,18207 9263,18204 L 9241,18204 9237,18204 C 9220,18204 9202,18204 9183,18205 L 9155,18115 C 9187,18105 9226,18097 9272,18097 9356,18096 9410,18079 9438,18045 9454,18023 9460,17997 9453,17965 9434,17881 9358,17863 9315,17854 9311,17854 9308,17852 9305,17852 9274,17844 9239,17840 9211,17840 9193,17840 9176,17843 9163,17846 9133,17852 9104,17863 9078,17877 L 9026,17716 9107,17689 C 9134,17740 9204,17771 9282,17767 9335,17765 9372,17771 9401,17782 Z"/>
     </g>
    </g>
    <g class="com.sun.star.drawing.ClosedBezierShape">
     <g id="id22">
      <rect class="BoundingBox" stroke="none" fill="none" x="9093" y="17888" width="317" height="182"/>
      <path fill="rgb(153,153,153)" stroke="none" d="M 9207,18002 C 9226,18002 9245,17998 9264,17998 9278,17998 9286,17994 9293,17980 9302,17962 9267,17947 9248,17944 9222,17942 9205,17947 9189,17962 9163,17983 9182,18002 9207,18002 Z M 9406,17975 C 9410,17992 9409,18005 9401,18016 9388,18031 9357,18049 9272,18050 9219,18050 9176,18060 9141,18069 L 9093,17924 C 9118,17909 9144,17898 9172,17891 9183,17888 9196,17888 9211,17888 9237,17888 9267,17891 9294,17898 9297,17898 9301,17899 9304,17899 9354,17911 9395,17924 9406,17975 Z"/>
     </g>
    </g>
    <g class="com.sun.star.drawing.ClosedBezierShape">
     <g id="id23">
      <rect class="BoundingBox" stroke="none" fill="none" x="9152" y="17623" width="213" height="103"/>
      <path fill="rgb(153,153,153)" stroke="none" d="M 9300,17623 L 9364,17725 C 9341,17721 9313,17719 9279,17721 9225,17723 9173,17704 9152,17674 L 9300,17623 Z"/>
     </g>
    </g>
    <g class="com.sun.star.drawing.ClosedBezierShape">
     <g id="id24">
      <rect class="BoundingBox" stroke="none" fill="none" x="8979" y="18256" width="199" height="115"/>
      <path fill="rgb(153,153,153)" stroke="none" d="M 9140,18257 L 9176,18370 8979,18322 C 8994,18304 9008,18291 9020,18287 9068,18272 9106,18262 9140,18257 Z"/>
     </g>
    </g>
    <g class="com.sun.star.drawing.ClosedBezierShape">
     <g id="id25">
      <rect class="BoundingBox" stroke="none" fill="none" x="8568" y="17623" width="559" height="689"/>
      <path fill="rgb(153,153,153)" stroke="none" d="M 9102,18132 L 9126,18212 C 9092,18219 9054,18227 9007,18242 8981,18250 8954,18276 8932,18311 L 8755,18267 C 8739,18246 8728,18226 8717,18205 8690,18153 8661,18099 8568,18048 L 8599,17624 8620,17629 C 8631,17642 8641,17654 8645,17661 8690,17741 8695,17779 8701,17823 8703,17846 8706,17873 8716,17904 8721,17926 8742,17941 8765,17941 L 8840,17941 C 8863,17941 8884,17926 8891,17904 8899,17874 8903,17848 8907,17823 8913,17787 8918,17756 8937,17713 L 8969,17722 9030,17912 C 9010,17932 8993,17952 8980,17976 8955,18018 8948,18062 8959,18098 8965,18112 8978,18155 9024,18155 9043,18155 9065,18147 9092,18136 9095,18135 9097,18133 9102,18132 Z"/>
     </g>
    </g>
    <g class="com.sun.star.drawing.ClosedBezierShape">
     <g id="id26">
      <rect class="BoundingBox" stroke="none" fill="none" x="9001" y="17963" width="88" height="147"/>
      <path fill="rgb(153,153,153)" stroke="none" d="M 9047,17963 L 9087,18088 C 9082,18089 9078,18091 9076,18092 9054,18100 9035,18109 9024,18109 9019,18109 9013,18109 9004,18082 8996,18061 9003,18029 9021,17999 9028,17985 9036,17974 9047,17963 Z"/>
     </g>
    </g>
    <g class="com.sun.star.drawing.ClosedBezierShape">
     <g id="id27">
      <rect class="BoundingBox" stroke="none" fill="none" x="8555" y="18099" width="134" height="153"/>
      <path fill="rgb(153,153,153)" stroke="none" d="M 8688,18251 L 8555,18218 8563,18099 C 8630,18140 8652,18183 8675,18227 L 8688,18251 Z"/>
     </g>
    </g>
    <g class="com.sun.star.drawing.ClosedBezierShape">
     <g id="id28">
      <rect class="BoundingBox" stroke="none" fill="none" x="8130" y="17627" width="413" height="414"/>
      <path fill="rgb(153,153,153)" stroke="none" d="M 8542,17628 L 8513,18021 C 8487,18011 8458,18000 8425,17989 8356,17967 8285,17992 8216,18015 8186,18025 8157,18035 8130,18040 L 8183,17900 C 8193,17900 8201,17899 8211,17897 8280,17881 8401,17844 8424,17771 8431,17749 8431,17716 8432,17677 L 8432,17664 8542,17628 Z"/>
     </g>
    </g>
    <g class="com.sun.star.drawing.ClosedBezierShape">
     <g id="id29">
      <rect class="BoundingBox" stroke="none" fill="none" x="8079" y="18028" width="431" height="226"/>
      <path fill="rgb(153,153,153)" stroke="none" d="M 8509,18070 L 8498,18219 8381,18253 C 8359,18195 8310,18158 8266,18151 8203,18142 8157,18144 8101,18164 8093,18165 8086,18168 8079,18169 L 8109,18091 8134,18087 C 8167,18081 8199,18070 8231,18059 8292,18039 8355,18017 8411,18035 8450,18046 8481,18058 8509,18070 Z"/>
     </g>
    </g>
    <g class="com.sun.star.drawing.ClosedBezierShape">
     <g id="id30">
      <rect class="BoundingBox" stroke="none" fill="none" x="8204" y="17679" width="183" height="173"/>
      <path fill="rgb(153,153,153)" stroke="none" d="M 8255,17722 L 8386,17679 C 8385,17711 8385,17742 8379,17756 8367,17800 8281,17833 8204,17851 L 8255,17722 Z"/>
     </g>
    </g>
    <g class="com.sun.star.drawing.ClosedBezierShape">
     <g id="id31">
      <rect class="BoundingBox" stroke="none" fill="none" x="8728" y="17715" width="154" height="177"/>
      <path fill="rgb(0,0,0)" stroke="none" d="M 8728,17715 C 8755,17786 8747,17823 8765,17891 L 8840,17891 C 8859,17825 8855,17781 8881,17715 L 8728,17715 Z"/>
     </g>
    </g>
    <g class="com.sun.star.drawing.ClosedBezierShape">
     <g id="id32">
      <rect class="BoundingBox" stroke="none" fill="none" x="8675" y="17290" width="254" height="373"/>
      <path fill="rgb(250,177,16)" stroke="none" d="M 8809,17603 C 8811,17418 8859,17370 8910,17334 8928,17322 8928,17320 8928,17312 8928,17304 8928,17301 8917,17298 8896,17291 8855,17290 8802,17290 8749,17290 8709,17291 8688,17298 8676,17301 8676,17302 8676,17312 8676,17320 8676,17322 8694,17334 8744,17367 8792,17415 8795,17600 8795,17629 8796,17648 8796,17662 L 8807,17662 C 8807,17650 8809,17631 8809,17603 Z"/>
     </g>
    </g>
    <g class="com.sun.star.drawing.ClosedBezierShape">
     <g id="id33">
      <rect class="BoundingBox" stroke="none" fill="none" x="8476" y="16943" width="653" height="721"/>
      <path fill="rgb(250,177,16)" stroke="none" d="M 8802,16943 C 8622,16943 8476,17089 8476,17270 8476,17354 8510,17420 8565,17494 8591,17529 8669,17598 8689,17635 8695,17645 8700,17654 8704,17663 L 8733,17663 8733,17602 C 8730,17435 8689,17406 8659,17385 8640,17373 8614,17355 8614,17312 8614,17275 8632,17251 8669,17238 8698,17230 8739,17229 8802,17229 8865,17229 8906,17230 8934,17238 8971,17251 8990,17275 8990,17312 8990,17355 8964,17373 8945,17387 8914,17407 8873,17436 8870,17605 L 8870,17663 8904,17663 C 8908,17654 8912,17646 8918,17638 8936,17605 9012,17528 9044,17494 9071,17462 9127,17376 9127,17270 9127,17089 8982,16943 8802,16943 Z"/>
     </g>
    </g>
    <g class="com.sun.star.drawing.ClosedBezierShape">
     <g id="id34">
      <rect class="BoundingBox" stroke="none" fill="none" x="9198" y="18081" width="485" height="294"/>
      <path fill="rgb(153,153,153)" stroke="none" d="M 9591,18081 L 9652,18178 9652,18179 9682,18226 9621,18246 9238,18374 9198,18251 C 9213,18250 9227,18250 9240,18250 9246,18250 9253,18250 9260,18251 9312,18254 9391,18258 9541,18147 9559,18133 9577,18110 9591,18081 Z"/>
     </g>
    </g>
    <g class="com.sun.star.drawing.ClosedBezierShape">
     <g id="id35">
      <rect class="BoundingBox" stroke="none" fill="none" x="8003" y="18192" width="334" height="174"/>
      <path fill="rgb(153,153,153)" stroke="none" d="M 8336,18267 L 8032,18357 8032,18356 8003,18364 8056,18222 C 8057,18222 8057,18222 8058,18223 L 8058,18221 C 8076,18218 8095,18214 8114,18207 8164,18191 8203,18188 8258,18196 8287,18202 8320,18227 8336,18267 Z"/>
     </g>
    </g>
   </g>
  </g>
 </g>
</svg>